<svg xmlns="http://www.w3.org/2000/svg"  viewBox="0 0 80 80" width="80px" height="80px"><path d="M 12.925781 11 L 16.833984 65.585938 C 16.965923 67.497405 18.572028 69 20.490234 69 L 39.509766 69 C 41.427341 69 43.035347 67.498791 43.166016 65.585938 L 43.166016 65.582031 L 43.333984 63.228516 C 46.27382 66.133813 50.230016 68 54.667969 68 C 63.682339 68 71 60.594657 71 51.5 C 71 44.406661 66.540701 38.359284 60.304688 36.033203 C 65.256396 34.146484 68.992738 29.678769 69.984375 24.234375 L 70.181641 23.144531 L 69.078125 23.058594 C 68.736196 23.031759 68.367072 23 67.962891 23 C 61.187154 23 55.467406 27.578488 53.498047 33.867188 C 52.988971 31.83082 52.480105 29.794657 51.970703 27.757812 A 1.0001 1.0001 0 0 0 51.037109 26.986328 A 1.0001 1.0001 0 0 0 50.029297 28.242188 C 50.61549 30.586079 51.201037 32.929467 51.787109 35.273438 C 49.33438 35.731306 47.0758 36.750784 45.128906 38.177734 L 47.074219 11 L 12.925781 11 z M 15.074219 13 L 44.925781 13 L 43.996094 26 C 43.447906 26.002166 43 26.451328 43 27 C 43 27.498188 43.375206 27.896721 43.853516 27.970703 L 41.171875 65.445312 L 41.171875 65.447266 C 41.112618 66.328503 40.394885 67 39.509766 67 L 20.490234 67 C 19.603747 67 18.888106 66.329939 18.828125 65.447266 L 18.828125 65.445312 L 16.146484 27.970703 C 16.624794 27.896721 17 27.498188 17 27 C 17 26.451328 16.552094 26.002166 16.003906 26 L 15.074219 13 z M 67.580078 25.070312 C 66.020118 30.647161 61.26101 34.749327 55.419922 34.929688 C 56.979882 29.352839 61.73899 25.250672 67.580078 25.070312 z M 54.667969 37 C 56.704903 37 58.638779 37.434553 60.392578 38.207031 A 1 1 0 0 0 61 40 A 1 1 0 0 0 61.998047 39.050781 C 64.01684 40.268413 65.709331 41.969513 66.925781 44.003906 A 1 1 0 0 0 67 46 A 1 1 0 0 0 67.771484 45.632812 C 68.555935 47.426893 69 49.40794 69 51.5 C 69 53.38948 68.633068 55.186539 67.986328 56.839844 A 1 1 0 0 0 67 56 A 1 1 0 0 0 67 58 A 1 1 0 0 0 67.548828 57.835938 C 65.812793 61.448156 62.650254 64.218503 58.789062 65.386719 A 1 1 0 0 0 58 65 A 1 1 0 0 0 57.023438 65.789062 C 56.255581 65.917346 55.472095 66 54.667969 66 C 54.101042 66 53.542592 65.965828 52.994141 65.900391 A 1 1 0 0 0 52 65 A 1 1 0 0 0 51.117188 65.53125 C 48.090787 64.737103 45.458887 62.966312 43.546875 60.568359 L 44.939453 40.902344 C 47.499918 38.494754 50.897345 37 54.667969 37 z M 58 41 A 1 1 0 0 0 58 43 A 1 1 0 0 0 58 41 z M 64 41 A 1 1 0 0 0 64 43 A 1 1 0 0 0 64 41 z M 61 44 A 1 1 0 0 0 61 46 A 1 1 0 0 0 61 44 z M 58 47 A 1 1 0 0 0 58 49 A 1 1 0 0 0 58 47 z M 64 47 A 1 1 0 0 0 64 49 A 1 1 0 0 0 64 47 z M 55 50 A 1 1 0 0 0 55 52 A 1 1 0 0 0 55 50 z M 61 50 A 1 1 0 0 0 61 52 A 1 1 0 0 0 61 50 z M 67 50 A 1 1 0 0 0 67 52 A 1 1 0 0 0 67 50 z M 58 53 A 1 1 0 0 0 58 55 A 1 1 0 0 0 58 53 z M 64 53 A 1 1 0 0 0 64 55 A 1 1 0 0 0 64 53 z M 55 56 A 1 1 0 0 0 55 58 A 1 1 0 0 0 55 56 z M 61 56 A 1 1 0 0 0 61 58 A 1 1 0 0 0 61 56 z M 52 59 A 1 1 0 0 0 52 61 A 1 1 0 0 0 52 59 z M 58 59 A 1 1 0 0 0 58 61 A 1 1 0 0 0 58 59 z M 64 59 A 1 1 0 0 0 64 61 A 1 1 0 0 0 64 59 z M 55 62 A 1 1 0 0 0 55 64 A 1 1 0 0 0 55 62 z M 61 62 A 1 1 0 0 0 61 64 A 1 1 0 0 0 61 62 z"/></svg>